<svg width="15" height="17" viewBox="0 0 15 17" fill="none" xmlns="http://www.w3.org/2000/svg">
<path d="M10.0221 12.5436V13.3843C10.0221 14.7771 8.89296 15.9062 7.50014 15.9062C6.10731 15.9062 4.97821 14.7771 4.97821 13.3843V12.5436M10.0221 12.5436H4.97821M10.0221 12.5436H13.0404C13.362 12.5436 13.5235 12.5436 13.6537 12.4997C13.9024 12.4158 14.097 12.2205 14.1809 11.9718C14.225 11.8411 14.225 11.679 14.225 11.3549C14.225 11.2131 14.2249 11.1422 14.2138 11.0745C14.1928 10.9468 14.1432 10.8256 14.0677 10.7204C14.0278 10.6649 13.9771 10.6141 13.8771 10.5142L13.5496 10.1867C13.444 10.081 13.3846 9.93773 13.3846 9.78833V6.65912C13.3846 3.40919 10.7501 0.774615 7.50014 0.774623C4.25023 0.774631 1.61564 3.40921 1.61564 6.65912V9.78835C1.61564 9.93776 1.55616 10.081 1.45051 10.1867L1.12308 10.5141C1.02279 10.6144 0.972587 10.6648 0.932622 10.7205C0.857095 10.8256 0.807068 10.9468 0.786098 11.0745C0.775001 11.1422 0.775001 11.2131 0.775001 11.3549C0.775001 11.679 0.775001 11.841 0.819095 11.9718C0.902989 12.2205 1.09848 12.4158 1.3472 12.4997C1.47741 12.5436 1.63835 12.5436 1.95993 12.5436H4.97821" stroke="#3A544D" stroke-width="1.5" stroke-linecap="round" stroke-linejoin="round"/>
</svg>
