<svg width="311" height="266" viewBox="0 0 311 266" fill="none" xmlns="http://www.w3.org/2000/svg">
<rect x="26" y="2" width="44" height="44" stroke="white" stroke-width="4"/>
<rect x="33" y="9" width="30" height="30" fill="white" stroke="white" stroke-width="4"/>
<rect x="251" y="227" width="30" height="30" fill="white" stroke="white" stroke-width="4"/>
<rect x="40" y="233" width="17" height="17" fill="white" stroke="white" stroke-width="4"/>
<rect x="252" y="10" width="29" height="29" fill="white"/>
<rect x="26" y="220" width="44" height="44" stroke="white" stroke-width="4"/>
<rect x="244" y="220" width="44" height="44" stroke="white" stroke-width="4"/>
<rect x="244" y="2" width="44" height="44" stroke="white" stroke-width="4"/>
<circle cx="82.5" cy="14.5" r="7.5" fill="white"/>
<circle cx="100.5" cy="14.5" r="7.5" fill="white"/>
<circle cx="118.5" cy="14.5" r="7.5" fill="white"/>
<circle cx="136.5" cy="14.5" r="7.5" fill="white"/>
<circle cx="154.5" cy="14.5" r="7.5" fill="white"/>
<circle cx="172.5" cy="14.5" r="7.5" fill="white"/>
<circle cx="190.5" cy="14.5" r="7.5" fill="white"/>
<circle cx="208.5" cy="14.5" r="7.5" fill="white"/>
<circle cx="226.5" cy="33.5" r="7.5" fill="white"/>
<circle cx="226.5" cy="52.5" r="7.5" fill="white"/>
<circle cx="244.5" cy="60.5" r="7.5" fill="white"/>
<circle cx="263.5" cy="60.5" r="7.5" fill="white"/>
<circle cx="275.5" cy="75.5" r="7.5" fill="white"/>
<circle cx="275.5" cy="95.5" r="7.5" fill="white"/>
<circle cx="276.5" cy="115.5" r="7.5" fill="white"/>
<circle cx="276.5" cy="155.5" r="7.5" fill="white"/>
<circle cx="276.5" cy="175.5" r="7.5" fill="white"/>
<circle cx="276.5" cy="195.5" r="7.5" fill="white"/>
<circle cx="263.5" cy="208.5" r="7.5" fill="white"/>
<circle cx="244.5" cy="208.5" r="7.5" fill="white"/>
<circle cx="226.5" cy="225.5" r="7.5" fill="white"/>
<circle cx="226.5" cy="244.5" r="7.5" fill="white"/>
<circle cx="211.5" cy="252.5" r="7.5" fill="white"/>
<circle cx="190.5" cy="252.5" r="7.5" fill="white"/>
<circle cx="148.5" cy="252.5" r="7.5" fill="white"/>
<circle cx="127.5" cy="252.5" r="7.5" fill="white"/>
<circle cx="106.5" cy="252.5" r="7.5" fill="white"/>
<circle cx="85.5" cy="252.5" r="7.5" fill="white"/>
<circle cx="85.5" cy="232.5" r="7.5" fill="white"/>
<circle cx="85.5" cy="212.5" r="7.5" fill="white"/>
<circle cx="66.5" cy="205.5" r="7.5" fill="white"/>
<circle cx="45.5" cy="208.5" r="7.5" fill="white"/>
<circle cx="37.5" cy="191.5" r="7.5" fill="white"/>
<circle cx="37.5" cy="140.5" r="7.5" fill="white"/>
<circle cx="37.5" cy="123.5" r="7.5" fill="white"/>
<circle cx="37.5" cy="106.5" r="7.5" fill="white"/>
<circle cx="37.5" cy="89.5" r="7.5" fill="white"/>
<circle cx="37.5" cy="72.5" r="7.5" fill="white"/>
<circle cx="55.5" cy="89.5" r="7.5" fill="white"/>
<circle cx="55.5" cy="123.5" r="7.5" fill="white"/>
<circle cx="55.5" cy="140.5" r="7.5" fill="white"/>
<circle cx="55.5" cy="157.5" r="7.5" fill="white"/>
<circle cx="55.5" cy="174.5" r="7.5" fill="white"/>
<circle cx="55.5" cy="191.5" r="7.5" fill="white"/>
<circle cx="73.5" cy="72.5" r="7.5" fill="white"/>
<circle cx="73.5" cy="106.5" r="7.5" fill="white"/>
<circle cx="73.5" cy="123.5" r="7.5" fill="white"/>
<circle cx="73.5" cy="140.5" r="7.5" fill="white"/>
<circle cx="73.5" cy="157.5" r="7.5" fill="white"/>
<circle cx="73.5" cy="174.5" r="7.5" fill="white"/>
<circle cx="73.5" cy="191.5" r="7.5" fill="white"/>
<circle cx="91.5" cy="72.5" r="7.5" fill="white"/>
<circle cx="91.5" cy="89.5" r="7.5" fill="white"/>
<circle cx="91.5" cy="106.5" r="7.5" fill="white"/>
<circle cx="91.5" cy="123.5" r="7.5" fill="white"/>
<circle cx="91.5" cy="140.5" r="7.5" fill="white"/>
<circle cx="91.5" cy="157.5" r="7.5" fill="white"/>
<circle cx="91.5" cy="55.5" r="7.5" fill="white"/>
<circle cx="109.5" cy="72.5" r="7.5" fill="white"/>
<circle cx="109.5" cy="89.5" r="7.5" fill="white"/>
<circle cx="109.5" cy="106.5" r="7.5" fill="white"/>
<circle cx="109.5" cy="140.5" r="7.5" fill="white"/>
<circle cx="109.5" cy="174.5" r="7.5" fill="white"/>
<circle cx="109.5" cy="191.5" r="7.5" fill="white"/>
<circle cx="109.5" cy="208.5" r="7.5" fill="white"/>
<circle cx="109.5" cy="225.5" r="7.5" fill="white"/>
<circle cx="118.5" cy="33.5" r="7.5" fill="white"/>
<circle cx="127.5" cy="72.5" r="7.5" fill="white"/>
<circle cx="127.5" cy="89.5" r="7.5" fill="white"/>
<circle cx="127.5" cy="106.5" r="7.5" fill="white"/>
<circle cx="127.5" cy="123.5" r="7.5" fill="white"/>
<circle cx="127.5" cy="140.5" r="7.5" fill="white"/>
<circle cx="127.5" cy="157.5" r="7.5" fill="white"/>
<circle cx="127.5" cy="174.5" r="7.5" fill="white"/>
<circle cx="127.5" cy="191.5" r="7.5" fill="white"/>
<circle cx="127.5" cy="208.5" r="7.5" fill="white"/>
<circle cx="127.5" cy="225.5" r="7.5" fill="white"/>
<circle cx="127.5" cy="55.5" r="7.5" fill="white"/>
<circle cx="136.5" cy="33.5" r="7.5" fill="white"/>
<circle cx="145.5" cy="72.5" r="7.5" fill="white"/>
<circle cx="145.5" cy="106.5" r="7.5" fill="white"/>
<circle cx="145.5" cy="123.5" r="7.5" fill="white"/>
<circle cx="145.5" cy="140.5" r="7.5" fill="white"/>
<circle cx="145.5" cy="157.5" r="7.5" fill="white"/>
<circle cx="145.5" cy="191.5" r="7.5" fill="white"/>
<circle cx="145.5" cy="208.5" r="7.5" fill="white"/>
<circle cx="145.5" cy="225.5" r="7.5" fill="white"/>
<circle cx="145.5" cy="55.5" r="7.5" fill="white"/>
<circle cx="154.5" cy="33.5" r="7.5" fill="white"/>
<circle cx="163.5" cy="72.5" r="7.5" fill="white"/>
<circle cx="163.5" cy="89.5" r="7.5" fill="white"/>
<circle cx="163.5" cy="106.5" r="7.5" fill="white"/>
<circle cx="163.5" cy="123.5" r="7.5" fill="white"/>
<circle cx="163.5" cy="140.5" r="7.5" fill="white"/>
<circle cx="163.5" cy="157.5" r="7.5" fill="white"/>
<circle cx="163.5" cy="174.5" r="7.5" fill="white"/>
<circle cx="163.5" cy="191.5" r="7.5" fill="white"/>
<circle cx="163.5" cy="55.5" r="7.5" fill="white"/>
<circle cx="172.5" cy="33.5" r="7.5" fill="white"/>
<circle cx="181.5" cy="72.5" r="7.5" fill="white"/>
<circle cx="181.5" cy="106.5" r="7.5" fill="white"/>
<circle cx="181.5" cy="123.5" r="7.5" fill="white"/>
<circle cx="181.5" cy="140.5" r="7.5" fill="white"/>
<circle cx="181.5" cy="208.5" r="7.5" fill="white"/>
<circle cx="181.5" cy="225.5" r="7.5" fill="white"/>
<circle cx="199.5" cy="72.5" r="7.5" fill="white"/>
<circle cx="199.5" cy="89.5" r="7.5" fill="white"/>
<circle cx="199.5" cy="106.5" r="7.5" fill="white"/>
<circle cx="199.5" cy="140.5" r="7.5" fill="white"/>
<circle cx="199.5" cy="157.5" r="7.5" fill="white"/>
<circle cx="199.5" cy="174.5" r="7.5" fill="white"/>
<circle cx="199.5" cy="191.5" r="7.5" fill="white"/>
<circle cx="199.5" cy="208.5" r="7.5" fill="white"/>
<circle cx="199.5" cy="225.5" r="7.5" fill="white"/>
<circle cx="199.5" cy="55.5" r="7.5" fill="white"/>
<circle cx="208.5" cy="33.5" r="7.5" fill="white"/>
<circle cx="217.5" cy="72.5" r="7.5" fill="white"/>
<circle cx="217.5" cy="89.5" r="7.5" fill="white"/>
<circle cx="234.5" cy="106.5" r="7.5" fill="white"/>
<circle cx="251.5" cy="106.5" r="7.5" fill="white"/>
<circle cx="217.5" cy="123.5" r="7.5" fill="white"/>
<circle cx="234.5" cy="123.5" r="7.5" fill="white"/>
<circle cx="251.5" cy="123.5" r="7.5" fill="white"/>
<circle cx="217.5" cy="140.5" r="7.5" fill="white"/>
<circle cx="234.5" cy="140.5" r="7.5" fill="white"/>
<circle cx="251.5" cy="140.5" r="7.5" fill="white"/>
<circle cx="217.5" cy="157.5" r="7.5" fill="white"/>
<circle cx="234.5" cy="157.5" r="7.5" fill="white"/>
<circle cx="251.5" cy="157.5" r="7.5" fill="white"/>
<circle cx="217.5" cy="174.5" r="7.5" fill="white"/>
<circle cx="234.5" cy="174.5" r="7.5" fill="white"/>
<circle cx="217.5" cy="191.5" r="7.5" fill="white"/>
<circle cx="234.5" cy="191.5" r="7.5" fill="white"/>
<circle cx="251.5" cy="191.5" r="7.5" fill="white"/>
<circle cx="217.5" cy="208.5" r="7.5" fill="white"/>
<circle cx="257.5" cy="86.5" r="7.5" fill="white"/>
<circle cx="37.5" cy="55.5" r="7.5" fill="white"/>
<circle cx="55.5" cy="55.5" r="7.5" fill="white"/>
<circle cx="73.5" cy="55.5" r="7.5" fill="white"/>
<circle cx="82.5" cy="33.5" r="7.5" fill="white"/>
<circle cx="276.5" cy="135.5" r="7.5" fill="white"/>
<rect y="128" width="311" height="5" fill="url(#paint0_linear_28_197)"/>
<rect x="311" y="150" width="311" height="17" transform="rotate(180 311 150)" fill="url(#paint1_linear_28_197)" fill-opacity="0.6"/>
<defs>
<linearGradient id="paint0_linear_28_197" x1="331.701" y1="130.667" x2="-4.62502e-08" y2="130.667" gradientUnits="userSpaceOnUse">
<stop offset="0.0154709" stop-color="#4CD964"/>
<stop offset="1" stop-color="#D5942A"/>
</linearGradient>
<linearGradient id="paint1_linear_28_197" x1="642.701" y1="159.067" x2="311" y2="159.067" gradientUnits="userSpaceOnUse">
<stop offset="0.0154709" stop-color="#006C51"/>
<stop offset="1" stop-color="#D5942A"/>
</linearGradient>
</defs>
</svg>
