<svg width="65" height="65" viewBox="0 0 65 65" fill="none" xmlns="http://www.w3.org/2000/svg">
<rect x="0.5" y="0.5" width="10.7293" height="10.7293" stroke="white"/>
<rect x="2.21021" y="2.21045" width="7.30827" height="7.30827" fill="white" stroke="white"/>
<rect x="55.4812" y="55.4812" width="7.30827" height="7.30827" fill="white" stroke="white"/>
<rect x="3.9209" y="56.9475" width="4.13158" height="4.13158" fill="white" stroke="white"/>
<rect x="55.7144" y="2.4436" width="7.08647" height="7.08647" fill="white"/>
<rect x="0.5" y="53.7708" width="10.7293" height="10.7293" stroke="white"/>
<rect x="53.7705" y="53.7708" width="10.7293" height="10.7293" stroke="white"/>
<rect x="53.7705" y="0.5" width="10.7293" height="10.7293" stroke="white"/>
<circle cx="14.2946" cy="3.54316" r="1.83271" fill="white"/>
<circle cx="18.6935" cy="3.54316" r="1.83271" fill="white"/>
<circle cx="23.0915" cy="3.54316" r="1.83271" fill="white"/>
<circle cx="27.4904" cy="3.54316" r="1.83271" fill="white"/>
<circle cx="31.8893" cy="3.54316" r="1.83271" fill="white"/>
<circle cx="36.2873" cy="3.54316" r="1.83271" fill="white"/>
<circle cx="40.6862" cy="3.54316" r="1.83271" fill="white"/>
<circle cx="45.0847" cy="3.54316" r="1.83271" fill="white"/>
<circle cx="49.4831" cy="8.18598" r="1.83271" fill="white"/>
<circle cx="49.4831" cy="12.829" r="1.83271" fill="white"/>
<circle cx="53.8813" cy="14.7839" r="1.83271" fill="white"/>
<circle cx="58.5241" cy="14.7839" r="1.83271" fill="white"/>
<circle cx="61.4562" cy="18.4494" r="1.83271" fill="white"/>
<circle cx="61.4562" cy="23.3364" r="1.83271" fill="white"/>
<circle cx="61.7011" cy="28.2236" r="1.83271" fill="white"/>
<circle cx="61.7011" cy="37.9982" r="1.83271" fill="white"/>
<circle cx="61.7011" cy="42.8852" r="1.83271" fill="white"/>
<circle cx="61.7011" cy="47.7724" r="1.83271" fill="white"/>
<circle cx="58.5241" cy="50.9494" r="1.83271" fill="white"/>
<circle cx="53.8813" cy="50.9494" r="1.83271" fill="white"/>
<circle cx="49.4831" cy="55.1035" r="1.83271" fill="white"/>
<circle cx="49.4831" cy="59.746" r="1.83271" fill="white"/>
<circle cx="45.8178" cy="61.7011" r="1.83271" fill="white"/>
<circle cx="40.6862" cy="61.7011" r="1.83271" fill="white"/>
<circle cx="30.4226" cy="61.7011" r="1.83271" fill="white"/>
<circle cx="25.2914" cy="61.7011" r="1.83271" fill="white"/>
<circle cx="20.1599" cy="61.7011" r="1.83271" fill="white"/>
<circle cx="15.0285" cy="61.7011" r="1.83271" fill="white"/>
<circle cx="15.0285" cy="56.8139" r="1.83271" fill="white"/>
<circle cx="15.0285" cy="51.9269" r="1.83271" fill="white"/>
<circle cx="10.3852" cy="50.216" r="1.83271" fill="white"/>
<circle cx="5.2536" cy="50.9494" r="1.83271" fill="white"/>
<circle cx="3.29902" cy="46.7951" r="1.83271" fill="white"/>
<circle cx="3.29902" cy="34.3327" r="1.83271" fill="white"/>
<circle cx="3.29902" cy="30.1787" r="1.83271" fill="white"/>
<circle cx="3.29902" cy="26.0244" r="1.83271" fill="white"/>
<circle cx="3.29902" cy="21.8703" r="1.83271" fill="white"/>
<circle cx="3.29902" cy="17.716" r="1.83271" fill="white"/>
<circle cx="7.69745" cy="21.8703" r="1.83271" fill="white"/>
<circle cx="7.69745" cy="30.1787" r="1.83271" fill="white"/>
<circle cx="7.69745" cy="34.3327" r="1.83271" fill="white"/>
<circle cx="7.69745" cy="38.4868" r="1.83271" fill="white"/>
<circle cx="7.69745" cy="42.6411" r="1.83271" fill="white"/>
<circle cx="7.69745" cy="46.7951" r="1.83271" fill="white"/>
<circle cx="12.0959" cy="17.716" r="1.83271" fill="white"/>
<circle cx="12.0959" cy="26.0244" r="1.83271" fill="white"/>
<circle cx="12.0959" cy="30.1787" r="1.83271" fill="white"/>
<circle cx="12.0959" cy="34.3327" r="1.83271" fill="white"/>
<circle cx="12.0959" cy="38.4868" r="1.83271" fill="white"/>
<circle cx="12.0959" cy="42.6411" r="1.83271" fill="white"/>
<circle cx="12.0959" cy="46.7951" r="1.83271" fill="white"/>
<circle cx="16.4948" cy="17.716" r="1.83271" fill="white"/>
<circle cx="16.4948" cy="21.8703" r="1.83271" fill="white"/>
<circle cx="16.4948" cy="26.0244" r="1.83271" fill="white"/>
<circle cx="16.4948" cy="30.1787" r="1.83271" fill="white"/>
<circle cx="16.4948" cy="34.3327" r="1.83271" fill="white"/>
<circle cx="16.4948" cy="38.4868" r="1.83271" fill="white"/>
<circle cx="16.4948" cy="13.562" r="1.83271" fill="white"/>
<circle cx="20.8933" cy="17.716" r="1.83271" fill="white"/>
<circle cx="20.8933" cy="21.8703" r="1.83271" fill="white"/>
<circle cx="20.8933" cy="26.0244" r="1.83271" fill="white"/>
<circle cx="20.8933" cy="34.3327" r="1.83271" fill="white"/>
<circle cx="20.8933" cy="42.6411" r="1.83271" fill="white"/>
<circle cx="20.8933" cy="46.7951" r="1.83271" fill="white"/>
<circle cx="20.8933" cy="50.9494" r="1.83271" fill="white"/>
<circle cx="20.8933" cy="55.1035" r="1.83271" fill="white"/>
<circle cx="23.0915" cy="8.18598" r="1.83271" fill="white"/>
<circle cx="25.2914" cy="17.716" r="1.83271" fill="white"/>
<circle cx="25.2914" cy="21.8703" r="1.83271" fill="white"/>
<circle cx="25.2914" cy="26.0244" r="1.83271" fill="white"/>
<circle cx="25.2914" cy="30.1787" r="1.83271" fill="white"/>
<circle cx="25.2914" cy="34.3327" r="1.83271" fill="white"/>
<circle cx="25.2914" cy="38.4868" r="1.83271" fill="white"/>
<circle cx="25.2914" cy="42.6411" r="1.83271" fill="white"/>
<circle cx="25.2914" cy="46.7951" r="1.83271" fill="white"/>
<circle cx="25.2914" cy="50.9494" r="1.83271" fill="white"/>
<circle cx="25.2914" cy="55.1035" r="1.83271" fill="white"/>
<circle cx="25.2914" cy="13.562" r="1.83271" fill="white"/>
<circle cx="27.4904" cy="8.18598" r="1.83271" fill="white"/>
<circle cx="29.6899" cy="17.716" r="1.83271" fill="white"/>
<circle cx="29.6899" cy="26.0244" r="1.83271" fill="white"/>
<circle cx="29.6899" cy="30.1787" r="1.83271" fill="white"/>
<circle cx="29.6899" cy="34.3327" r="1.83271" fill="white"/>
<circle cx="29.6899" cy="38.4868" r="1.83271" fill="white"/>
<circle cx="29.6899" cy="46.7951" r="1.83271" fill="white"/>
<circle cx="29.6899" cy="50.9494" r="1.83271" fill="white"/>
<circle cx="29.6899" cy="55.1035" r="1.83271" fill="white"/>
<circle cx="29.6899" cy="13.562" r="1.83271" fill="white"/>
<circle cx="31.8893" cy="8.18598" r="1.83271" fill="white"/>
<circle cx="34.0888" cy="17.716" r="1.83271" fill="white"/>
<circle cx="34.0888" cy="21.8703" r="1.83271" fill="white"/>
<circle cx="34.0888" cy="26.0244" r="1.83271" fill="white"/>
<circle cx="34.0888" cy="30.1787" r="1.83271" fill="white"/>
<circle cx="34.0888" cy="34.3327" r="1.83271" fill="white"/>
<circle cx="34.0888" cy="38.4868" r="1.83271" fill="white"/>
<circle cx="34.0888" cy="42.6411" r="1.83271" fill="white"/>
<circle cx="34.0888" cy="46.7951" r="1.83271" fill="white"/>
<circle cx="34.0888" cy="13.562" r="1.83271" fill="white"/>
<circle cx="36.2873" cy="8.18598" r="1.83271" fill="white"/>
<circle cx="38.4868" cy="17.716" r="1.83271" fill="white"/>
<circle cx="38.4868" cy="26.0244" r="1.83271" fill="white"/>
<circle cx="38.4868" cy="30.1787" r="1.83271" fill="white"/>
<circle cx="38.4868" cy="34.3327" r="1.83271" fill="white"/>
<circle cx="38.4868" cy="50.9494" r="1.83271" fill="white"/>
<circle cx="38.4868" cy="55.1035" r="1.83271" fill="white"/>
<circle cx="42.8852" cy="17.716" r="1.83271" fill="white"/>
<circle cx="42.8852" cy="21.8703" r="1.83271" fill="white"/>
<circle cx="42.8852" cy="26.0244" r="1.83271" fill="white"/>
<circle cx="42.8852" cy="34.3327" r="1.83271" fill="white"/>
<circle cx="42.8852" cy="38.4868" r="1.83271" fill="white"/>
<circle cx="42.8852" cy="42.6411" r="1.83271" fill="white"/>
<circle cx="42.8852" cy="46.7951" r="1.83271" fill="white"/>
<circle cx="42.8852" cy="50.9494" r="1.83271" fill="white"/>
<circle cx="42.8852" cy="55.1035" r="1.83271" fill="white"/>
<circle cx="42.8852" cy="13.562" r="1.83271" fill="white"/>
<circle cx="45.0847" cy="8.18598" r="1.83271" fill="white"/>
<circle cx="47.2841" cy="17.716" r="1.83271" fill="white"/>
<circle cx="47.2841" cy="21.8703" r="1.83271" fill="white"/>
<circle cx="51.4374" cy="26.0244" r="1.83271" fill="white"/>
<circle cx="55.5915" cy="26.0244" r="1.83271" fill="white"/>
<circle cx="47.2841" cy="30.1787" r="1.83271" fill="white"/>
<circle cx="51.4374" cy="30.1787" r="1.83271" fill="white"/>
<circle cx="55.5915" cy="30.1787" r="1.83271" fill="white"/>
<circle cx="47.2841" cy="34.3327" r="1.83271" fill="white"/>
<circle cx="51.4374" cy="34.3327" r="1.83271" fill="white"/>
<circle cx="55.5915" cy="34.3327" r="1.83271" fill="white"/>
<circle cx="47.2841" cy="38.4868" r="1.83271" fill="white"/>
<circle cx="51.4374" cy="38.4868" r="1.83271" fill="white"/>
<circle cx="55.5915" cy="38.4868" r="1.83271" fill="white"/>
<circle cx="47.2841" cy="42.6411" r="1.83271" fill="white"/>
<circle cx="51.4374" cy="42.6411" r="1.83271" fill="white"/>
<circle cx="47.2841" cy="46.7951" r="1.83271" fill="white"/>
<circle cx="51.4374" cy="46.7951" r="1.83271" fill="white"/>
<circle cx="55.5915" cy="46.7951" r="1.83271" fill="white"/>
<circle cx="47.2841" cy="50.9494" r="1.83271" fill="white"/>
<circle cx="57.0578" cy="21.1371" r="1.83271" fill="white"/>
<circle cx="3.29902" cy="13.562" r="1.83271" fill="white"/>
<circle cx="7.69745" cy="13.562" r="1.83271" fill="white"/>
<circle cx="12.0959" cy="13.562" r="1.83271" fill="white"/>
<circle cx="14.2946" cy="8.18598" r="1.83271" fill="white"/>
<circle cx="61.7011" cy="33.111" r="1.83271" fill="white"/>
</svg>
