<svg width="34" height="20" viewBox="0 0 34 20" fill="none" xmlns="http://www.w3.org/2000/svg">
<path d="M33.9343 10C33.9339 7.34899 32.9191 4.80657 31.1129 2.93146C29.3066 1.05636 26.8568 0.00197876 24.3016 3.29457e-05L9.63835 3.16638e-05C7.0821 3.14403e-05 4.63055 1.0536 2.82301 2.92896C1.01547 4.80432 1.10609e-06 7.34786 8.74226e-07 10C6.42367e-07 12.6522 1.01547 15.1957 2.82301 17.0711C4.63055 18.9464 7.0821 20 9.63835 20L24.2945 20C26.8497 19.9996 29.3002 18.9467 31.1075 17.0727C32.9148 15.1987 33.931 12.6569 33.9329 10.0059L33.9343 10ZM24.2959 16.6672C23.4526 16.6672 22.6176 16.4948 21.8384 16.16C21.0593 15.8252 20.3514 15.3344 19.755 14.7157C19.1587 14.097 18.6857 13.3625 18.363 12.5541C18.0403 11.7458 17.8741 10.8794 17.8741 10.0044C17.8741 9.12945 18.0403 8.26306 18.363 7.4547C18.6857 6.64634 19.1587 5.91184 19.755 5.29315C20.3514 4.67445 21.0593 4.18368 21.8384 3.84885C22.6176 3.51401 23.4526 3.34167 24.2959 3.34167C25.1393 3.34148 25.9744 3.51363 26.7536 3.84828C27.5328 4.18294 28.2408 4.67355 28.8373 5.29211C29.4337 5.91067 29.9069 6.64505 30.2298 7.45334C30.5527 8.26163 30.719 9.12799 30.7192 10.003C30.7193 10.8779 30.5534 11.7444 30.2309 12.5528C29.9083 13.3612 29.4354 14.0958 28.8393 14.7147C28.2431 15.3335 27.5352 15.8244 26.7562 16.1594C25.9771 16.4944 25.1421 16.667 24.2988 16.6672L24.2959 16.6672Z" fill="#138669"/>
</svg>
