<svg width="34" height="20" viewBox="0 0 34 20" fill="none" xmlns="http://www.w3.org/2000/svg">
<path d="M33.9343 9.99998C33.9339 12.651 32.9191 15.1934 31.1129 17.0685C29.3066 18.9436 26.8568 19.998 24.3016 20H9.63835C7.0821 20 4.63055 18.9464 2.82301 17.071C1.01547 15.1957 0 12.6521 0 9.99998C0 7.34782 1.01547 4.80429 2.82301 2.92893C4.63055 1.05357 7.0821 0 9.63835 0H24.2945C26.8497 0.000388115 29.3002 1.05327 31.1075 2.92728C32.9148 4.80129 33.931 7.34309 33.9329 9.99412L33.9343 9.99998ZM24.2959 3.33284C23.4526 3.33284 22.6176 3.50518 21.8384 3.84001C21.0593 4.17484 20.3514 4.66562 19.755 5.28431C19.1587 5.903 18.6857 6.6375 18.363 7.44586C18.0403 8.25422 17.8741 9.12062 17.8741 9.99558C17.8741 10.8705 18.0403 11.7369 18.363 12.5453C18.6857 13.3537 19.1587 14.0882 19.755 14.7069C20.3514 15.3255 21.0593 15.8163 21.8384 16.1512C22.6176 16.486 23.4526 16.6583 24.2959 16.6583C25.1393 16.6585 25.9744 16.4864 26.7536 16.1517C27.5328 15.8171 28.2408 15.3264 28.8373 14.7079C29.4337 14.0893 29.9069 13.3549 30.2298 12.5467C30.5527 11.7384 30.719 10.872 30.7192 9.99705C30.7193 9.12209 30.5534 8.25565 30.2309 7.44722C29.9083 6.63878 29.4354 5.90418 28.8393 5.28535C28.2431 4.66652 27.5352 4.17558 26.7562 3.84057C25.9771 3.50556 25.1421 3.33303 24.2988 3.33284H24.2959Z" fill="#3DA9FC"/>
</svg>
