<svg width="19" height="20" viewBox="0 0 19 20" fill="none" xmlns="http://www.w3.org/2000/svg">
<path d="M14.4738 14.4738C13.4112 14.4738 12.5498 15.3352 12.5498 16.3978C12.5498 17.4603 13.4112 18.3217 14.4738 18.3217C15.5364 18.3217 16.3978 17.4603 16.3978 16.3978C16.3978 15.3352 15.5364 14.4738 14.4738 14.4738ZM14.4738 14.4738H7.06071C6.61718 14.4738 6.395 14.4738 6.2124 14.3949C6.05131 14.3253 5.91156 14.2132 5.80974 14.0703C5.69561 13.9101 5.64971 13.6959 5.55886 13.2718L3.19117 2.22261C3.0982 1.78875 3.05109 1.57205 2.93565 1.41C2.83383 1.26708 2.6941 1.15459 2.53301 1.08497C2.35037 1.00604 2.12944 1.00604 1.68572 1.00604H1.00604M3.89199 3.89199H16.2758C16.9701 3.89199 17.317 3.89199 17.55 4.03663C17.7541 4.16333 17.9036 4.36203 17.9687 4.59328C18.0431 4.85728 17.9475 5.19063 17.7551 5.85776L16.4231 10.4753C16.3081 10.8742 16.2505 11.0732 16.1338 11.2212C16.0307 11.3519 15.8948 11.4541 15.7408 11.5169C15.5667 11.5879 15.3599 11.5879 14.9472 11.5879H5.55667M5.81596 18.3217C4.75338 18.3217 3.89199 17.4603 3.89199 16.3978C3.89199 15.3352 4.75338 14.4738 5.81596 14.4738C6.87853 14.4738 7.73992 15.3352 7.73992 16.3978C7.73992 17.4603 6.87853 18.3217 5.81596 18.3217Z" stroke="white" stroke-width="2" stroke-linecap="round" stroke-linejoin="round"/>
</svg>
