<svg width="34" height="20" viewBox="0 0 34 20" fill="none" xmlns="http://www.w3.org/2000/svg">
<path d="M9.24636e-05 9.99998C0.000466171 12.651 1.01528 15.1934 2.82152 17.0685C4.62775 18.9436 7.07763 19.998 9.63279 20H24.296C26.8523 20 29.3038 18.9464 31.1114 17.071C32.9189 15.1957 33.9344 12.6521 33.9344 9.99998C33.9344 7.34782 32.9189 4.80429 31.1114 2.92893C29.3038 1.05357 26.8523 0 24.296 0H9.63986C7.08471 0.000388115 4.63423 1.05327 2.82693 2.92728C1.01963 4.80129 0.00337877 7.34309 0.00150639 9.99412L9.24636e-05 9.99998ZM9.63844 3.33284C10.4818 3.33284 11.3168 3.50518 12.096 3.84001C12.8751 4.17484 13.583 4.66562 14.1793 5.28431C14.7757 5.903 15.2487 6.6375 15.5714 7.44586C15.8941 8.25422 16.0602 9.12062 16.0602 9.99558C16.0602 10.8705 15.8941 11.7369 15.5714 12.5453C15.2487 13.3537 14.7757 14.0882 14.1793 14.7069C13.583 15.3255 12.8751 15.8163 12.096 16.1512C11.3168 16.486 10.4818 16.6583 9.63844 16.6583C8.79512 16.6585 7.96002 16.4864 7.18082 16.1517C6.40162 15.8171 5.69358 15.3264 5.09713 14.7079C4.50069 14.0893 4.0275 13.3549 3.7046 12.5467C3.38171 11.7384 3.21542 10.872 3.21523 9.99705C3.21505 9.12209 3.38097 8.25565 3.70352 7.44722C4.02608 6.63878 4.49895 5.90418 5.09514 5.28535C5.69132 4.66652 6.39915 4.17558 7.17821 3.84057C7.95727 3.50556 8.7923 3.33303 9.63562 3.33284H9.63844Z" fill="#D7D7D7"/>
</svg>
