<svg width="17" height="19" viewBox="0 0 17 19" fill="none" xmlns="http://www.w3.org/2000/svg">
<path d="M5.60673 3.67788L8.50001 0.784604M8.50001 0.784604L11.3933 3.67788M8.50001 0.784604V10.4289M3.6781 7.53558C2.77937 7.53558 2.33 7.53558 1.97554 7.68241C1.50291 7.87818 1.1272 8.2539 0.931429 8.72652C0.784604 9.08099 0.784604 9.53013 0.784604 10.4289V15.0581C0.784604 16.1384 0.784604 16.6781 0.994836 17.0907C1.17976 17.4537 1.47462 17.7493 1.83756 17.9342C2.24976 18.1443 2.78964 18.1443 3.86779 18.1443H13.1327C14.2108 18.1443 14.7499 18.1443 15.1621 17.9342C15.5251 17.7493 15.8205 17.4537 16.0054 17.0907C16.2154 16.6785 16.2154 16.1392 16.2154 15.0611V10.4289C16.2154 9.53013 16.2153 9.08098 16.0685 8.72652C15.8727 8.2539 15.4973 7.87818 15.0247 7.68241C14.6702 7.53558 14.2209 7.53558 13.3221 7.53558" stroke="white" stroke-width="1.5" stroke-linecap="round" stroke-linejoin="round"/>
</svg>
