<svg width="17" height="17" viewBox="0 0 17 17" fill="none" xmlns="http://www.w3.org/2000/svg">
<path d="M0.935509 11.6176C0.788763 11.9719 0.788763 12.421 0.788763 13.3193C0.788763 14.2175 0.788763 14.6671 0.935509 15.0214C1.13117 15.4938 1.50622 15.8687 1.97858 16.0644C2.33286 16.2111 2.78198 16.2111 3.68023 16.2111C4.57847 16.2111 5.0281 16.2111 5.38237 16.0644C5.85474 15.8687 6.22969 15.4935 6.42535 15.0212C6.57209 14.6669 6.57209 14.2178 6.57209 13.3195C6.57209 12.4213 6.57209 11.9719 6.42535 11.6176C6.22969 11.1453 5.85474 10.7702 5.38237 10.5746C5.0281 10.4278 4.57847 10.4278 3.68023 10.4278C2.78198 10.4278 2.33286 10.4278 1.97858 10.5746C1.50622 10.7702 1.13117 11.1453 0.935509 11.6176Z" stroke="#A3B4B0" stroke-width="1.5" stroke-linecap="round" stroke-linejoin="round"/>
<path d="M10.5746 1.97858C10.4278 2.33286 10.4278 2.78198 10.4278 3.68023C10.4278 4.57847 10.4278 5.0281 10.5746 5.38237C10.7702 5.85474 11.1453 6.22969 11.6176 6.42535C11.9719 6.57209 12.421 6.57209 13.3193 6.57209C14.2175 6.57209 14.6671 6.57209 15.0214 6.42535C15.4938 6.22969 15.8687 5.85449 16.0644 5.38212C16.2111 5.02785 16.2111 4.57872 16.2111 3.68048C16.2111 2.78223 16.2111 2.33286 16.0644 1.97858C15.8687 1.50622 15.4938 1.13117 15.0214 0.935509C14.6671 0.788763 14.2175 0.788763 13.3193 0.788763C12.421 0.788763 11.9719 0.788763 11.6176 0.935509C11.1453 1.13117 10.7702 1.50622 10.5746 1.97858Z" stroke="#A3B4B0" stroke-width="1.5" stroke-linecap="round" stroke-linejoin="round"/>
<path d="M0.935509 1.97858C0.788763 2.33286 0.788763 2.78198 0.788763 3.68023C0.788763 4.57847 0.788763 5.0281 0.935509 5.38237C1.13117 5.85474 1.50622 6.22969 1.97858 6.42535C2.33286 6.57209 2.78198 6.57209 3.68023 6.57209C4.57847 6.57209 5.0281 6.57209 5.38237 6.42535C5.85474 6.22969 6.22969 5.85449 6.42535 5.38212C6.57209 5.02785 6.57209 4.57872 6.57209 3.68048C6.57209 2.78223 6.57209 2.33286 6.42535 1.97858C6.22969 1.50622 5.85474 1.13117 5.38237 0.935509C5.0281 0.788763 4.57847 0.788763 3.68023 0.788763C2.78198 0.788763 2.33286 0.788763 1.97858 0.935509C1.50622 1.13117 1.13117 1.50622 0.935509 1.97858Z" stroke="#A3B4B0" stroke-width="1.5" stroke-linecap="round" stroke-linejoin="round"/>
<path d="M0.935509 11.6176C0.788763 11.9719 0.788763 12.421 0.788763 13.3193C0.788763 14.2175 0.788763 14.6671 0.935509 15.0214C1.13117 15.4938 1.50622 15.8687 1.97858 16.0644C2.33286 16.2111 2.78198 16.2111 3.68023 16.2111C4.57847 16.2111 5.0281 16.2111 5.38237 16.0644C5.85474 15.8687 6.22969 15.4935 6.42535 15.0212C6.57209 14.6669 6.57209 14.2178 6.57209 13.3195C6.57209 12.4213 6.57209 11.9719 6.42535 11.6176C6.22969 11.1453 5.85474 10.7702 5.38237 10.5746C5.0281 10.4278 4.57847 10.4278 3.68023 10.4278C2.78198 10.4278 2.33286 10.4278 1.97858 10.5746C1.50622 10.7702 1.13117 11.1453 0.935509 11.6176Z" stroke="#A3B4B0" stroke-width="1.5" stroke-linecap="round" stroke-linejoin="round"/>
<path d="M5.38237 0.935508C5.0281 0.788763 4.57897 0.788763 3.68073 0.788762C2.78248 0.788762 2.33286 0.788762 1.97858 0.935508C1.50622 1.13117 1.13127 1.50621 0.935608 1.97858C0.788862 2.33286 0.788862 2.78198 0.788862 3.68023C0.788862 4.57847 0.788862 5.0281 0.935608 5.38237C1.13127 5.85474 1.50646 6.22968 1.97883 6.42535C2.33311 6.57209 2.78223 6.57209 3.68048 6.57209C4.57872 6.57209 5.0281 6.57209 5.38237 6.42535C5.85474 6.22968 6.22978 5.85474 6.42544 5.38237C6.57219 5.02809 6.57219 4.57847 6.57219 3.68023C6.57219 2.78198 6.57219 2.33286 6.42545 1.97858C6.22978 1.50621 5.85474 1.13117 5.38237 0.935508Z" stroke="#A3B4B0" stroke-width="1.5" stroke-linecap="round" stroke-linejoin="round"/>
<path d="M15.0214 10.5746C14.6671 10.4278 14.218 10.4278 13.3198 10.4278C12.4215 10.4278 11.9719 10.4278 11.6176 10.5746C11.1453 10.7702 10.7703 11.1453 10.5747 11.6176C10.4279 11.9719 10.4279 12.421 10.4279 13.3193C10.4279 14.2175 10.4279 14.6671 10.5747 15.0214C10.7703 15.4938 11.1455 15.8687 11.6179 16.0644C11.9722 16.2111 12.4213 16.2111 13.3195 16.2111C14.2178 16.2111 14.6671 16.2111 15.0214 16.0644C15.4938 15.8687 15.8688 15.4938 16.0645 15.0214C16.2112 14.6671 16.2112 14.2175 16.2112 13.3193C16.2112 12.421 16.2112 11.9719 16.0645 11.6176C15.8688 11.1453 15.4938 10.7702 15.0214 10.5746Z" stroke="#A3B4B0" stroke-width="1.5" stroke-linecap="round" stroke-linejoin="round"/>
<path d="M15.0214 0.935509C14.6671 0.788763 14.218 0.788763 13.3198 0.788763C12.4215 0.788763 11.9719 0.788763 11.6176 0.935509C11.1453 1.13117 10.7703 1.50622 10.5747 1.97858C10.4279 2.33286 10.4279 2.78198 10.4279 3.68023C10.4279 4.57847 10.4279 5.0281 10.5747 5.38237C10.7703 5.85474 11.1455 6.22968 11.6179 6.42535C11.9722 6.57209 12.4213 6.57209 13.3195 6.57209C14.2178 6.57209 14.6671 6.57209 15.0214 6.42535C15.4938 6.22969 15.8688 5.85474 16.0645 5.38237C16.2112 5.0281 16.2112 4.57847 16.2112 3.68023C16.2112 2.78198 16.2112 2.33286 16.0645 1.97858C15.8688 1.50622 15.4938 1.13117 15.0214 0.935509Z" stroke="#A3B4B0" stroke-width="1.5" stroke-linecap="round" stroke-linejoin="round"/>
<path d="M5.38237 0.935508C5.0281 0.788763 4.57897 0.788763 3.68073 0.788762C2.78248 0.788762 2.33286 0.788762 1.97858 0.935508C1.50622 1.13117 1.13127 1.50621 0.935608 1.97858C0.788862 2.33286 0.788862 2.78198 0.788862 3.68023C0.788862 4.57847 0.788862 5.0281 0.935608 5.38237C1.13127 5.85474 1.50646 6.22968 1.97883 6.42535C2.33311 6.57209 2.78223 6.57209 3.68048 6.57209C4.57872 6.57209 5.0281 6.57209 5.38237 6.42535C5.85474 6.22968 6.22978 5.85474 6.42544 5.38237C6.57219 5.02809 6.57219 4.57847 6.57219 3.68023C6.57219 2.78198 6.57219 2.33286 6.42545 1.97858C6.22978 1.50621 5.85474 1.13117 5.38237 0.935508Z" stroke="#A3B4B0" stroke-width="1.5" stroke-linecap="round" stroke-linejoin="round"/>
</svg>
