<svg width="19" height="23" viewBox="0 0 19 23" fill="none" xmlns="http://www.w3.org/2000/svg">
<path d="M12.0114 18.1444V19.1667C12.0114 20.8603 10.6384 22.2333 8.94469 22.2333C7.25102 22.2333 5.87803 20.8603 5.87803 19.1667V18.1444M12.0114 18.1444H5.87803M12.0114 18.1444H15.6817C16.0727 18.1444 16.2691 18.1444 16.4275 18.091C16.7299 17.989 16.9665 17.7515 17.0686 17.4491C17.1222 17.2901 17.1222 17.0931 17.1222 16.699C17.1222 16.5265 17.122 16.4403 17.1085 16.3581C17.083 16.2027 17.0227 16.0554 16.9309 15.9275C16.8823 15.8599 16.8207 15.7982 16.6991 15.6766L16.3009 15.2784C16.1724 15.15 16.1002 14.9757 16.1002 14.794V10.9889C16.1002 7.03698 12.8966 3.83332 8.94469 3.83333C4.9928 3.83334 1.78914 7.03699 1.78914 10.9889V14.794C1.78914 14.9757 1.71681 15.15 1.58834 15.2784L1.19018 15.6766C1.06822 15.7985 1.00718 15.8598 0.958583 15.9275C0.866742 16.0554 0.80591 16.2027 0.78041 16.3581C0.766916 16.4403 0.766916 16.5265 0.766916 16.699C0.766916 17.0931 0.766916 17.2901 0.820534 17.4491C0.92255 17.7515 1.16026 17.989 1.46271 18.091C1.62104 18.1444 1.81675 18.1444 2.2078 18.1444H5.87803" stroke="white" stroke-width="1.5" stroke-linecap="round" stroke-linejoin="round"/>
<circle cx="14.0558" cy="4.85556" r="4.08889" fill="#FFCB77" stroke="#006C51" stroke-width="1.5"/>
</svg>
