<svg width="5" height="5" viewBox="0 0 5 5" fill="none" xmlns="http://www.w3.org/2000/svg">
<path d="M2.50003 5.00006C2.03988 5.00006 1.61958 4.88774 1.23914 4.6631C0.862329 4.43846 0.561601 4.13773 0.33696 3.76091C0.11232 3.38047 0 2.96018 0 2.50003C0 2.03988 0.11232 1.62139 0.33696 1.24458C0.561601 0.86414 0.862329 0.5616 1.23914 0.336961C1.61958 0.11232 2.03988 0 2.50003 0C2.96018 0 3.37866 0.11232 3.75548 0.336961C4.13592 0.5616 4.43846 0.86414 4.6631 1.24458C4.88774 1.62139 5.00006 2.03988 5.00006 2.50003C5.00006 2.96018 4.88774 3.38047 4.6631 3.76091C4.43846 4.13773 4.13592 4.43846 3.75548 4.6631C3.37866 4.88774 2.96018 5.00006 2.50003 5.00006ZM2.50003 3.91309C2.7609 3.91309 2.99822 3.84968 3.21199 3.72287C3.42576 3.59606 3.59606 3.42576 3.72287 3.21199C3.84968 2.99822 3.91309 2.7609 3.91309 2.50003C3.91309 2.23916 3.84968 2.00183 3.72287 1.78806C3.59606 1.57429 3.42576 1.404 3.21199 1.27719C2.99822 1.15038 2.7609 1.08697 2.50003 1.08697C2.23916 1.08697 2.00183 1.15038 1.78806 1.27719C1.57429 1.404 1.404 1.57429 1.27719 1.78806C1.15038 2.00183 1.08697 2.23916 1.08697 2.50003C1.08697 2.7609 1.15038 2.99822 1.27719 3.21199C1.404 3.42576 1.57429 3.59606 1.78806 3.72287C2.00183 3.84968 2.23916 3.91309 2.50003 3.91309Z" fill="white"/>
</svg>
