<svg width="8" height="10" viewBox="0 0 8 10" fill="none" xmlns="http://www.w3.org/2000/svg">
<path d="M7.55107 5V7.86996C7.55107 8.82098 5.95206 9.59193 3.97957 9.59193C2.00709 9.59193 0.408072 8.82098 0.408072 7.86996V5M7.55107 5V2.13005M7.55107 5C7.55107 5.95102 5.95206 6.72197 3.97957 6.72197C2.00709 6.72197 0.408072 5.95102 0.408072 5M7.55107 2.13005C7.55107 1.17903 5.95206 0.408072 3.97957 0.408072C2.00709 0.408072 0.408072 1.17903 0.408072 2.13005M7.55107 2.13005C7.55107 3.08106 5.95206 3.85202 3.97957 3.85202C2.00709 3.85202 0.408072 3.08106 0.408072 2.13005M0.408072 5V2.13005" stroke="#899894" stroke-width="0.8" stroke-linecap="round" stroke-linejoin="round"/>
</svg>
