<svg width="9" height="9" viewBox="0 0 9 9" fill="none" xmlns="http://www.w3.org/2000/svg">
<path d="M3.16667 5.16667L5.83333 6.5M5.83333 2.5L3.16667 3.83333M7.16667 8.5C6.43029 8.5 5.83333 7.90305 5.83333 7.16667C5.83333 6.43029 6.43029 5.83333 7.16667 5.83333C7.90305 5.83333 8.5 6.43029 8.5 7.16667C8.5 7.90305 7.90305 8.5 7.16667 8.5ZM1.83333 5.83333C1.09695 5.83333 0.5 5.23638 0.5 4.5C0.5 3.76362 1.09695 3.16667 1.83333 3.16667C2.56971 3.16667 3.16667 3.76362 3.16667 4.5C3.16667 5.23638 2.56971 5.83333 1.83333 5.83333ZM7.16667 3.16667C6.43029 3.16667 5.83333 2.56971 5.83333 1.83333C5.83333 1.09695 6.43029 0.5 7.16667 0.5C7.90305 0.5 8.5 1.09695 8.5 1.83333C8.5 2.56971 7.90305 3.16667 7.16667 3.16667Z" stroke="#3A544D" stroke-linecap="round" stroke-linejoin="round"/>
</svg>
