<svg width="34" height="20" viewBox="0 0 34 20" fill="none" xmlns="http://www.w3.org/2000/svg">
<path d="M0 9.99998C0.000373707 12.651 1.01518 15.1934 2.82142 17.0685C4.62766 18.9436 7.07754 19.998 9.6327 20H24.2959C26.8522 20 29.3037 18.9464 31.1113 17.071C32.9188 15.1957 33.9343 12.6521 33.9343 9.99998C33.9343 7.34782 32.9188 4.80429 31.1113 2.92893C29.3037 1.05357 26.8522 0 24.2959 0H9.63977C7.08461 0.000388115 4.63413 1.05327 2.82684 2.92728C1.01954 4.80129 0.00328631 7.34309 0.00141392 9.99412L0 9.99998ZM9.63835 3.33284C10.4817 3.33284 11.3167 3.50518 12.0959 3.84001C12.875 4.17484 13.5829 4.66562 14.1792 5.28431C14.7756 5.903 15.2486 6.6375 15.5713 7.44586C15.894 8.25422 16.0601 9.12062 16.0601 9.99558C16.0601 10.8705 15.894 11.7369 15.5713 12.5453C15.2486 13.3537 14.7756 14.0882 14.1792 14.7069C13.5829 15.3255 12.875 15.8163 12.0959 16.1512C11.3167 16.486 10.4817 16.6583 9.63835 16.6583C8.79503 16.6585 7.95993 16.4864 7.18073 16.1517C6.40153 15.8171 5.69349 15.3264 5.09704 14.7079C4.50059 14.0893 4.02741 13.3549 3.70451 12.5467C3.38161 11.7384 3.21533 10.872 3.21514 9.99705C3.21496 9.12209 3.38088 8.25565 3.70343 7.44722C4.02598 6.63878 4.49886 5.90418 5.09504 5.28535C5.69123 4.66652 6.39906 4.17558 7.17812 3.84057C7.95717 3.50556 8.7922 3.33303 9.63553 3.33284H9.63835Z" fill="#D7D7D7"/>
</svg>
