<svg width="13" height="13" viewBox="0 0 13 13" fill="none" xmlns="http://www.w3.org/2000/svg">
<path d="M4.50287 7.49865L8.49725 9.49585M8.49725 3.50427L4.50287 5.50146M10.4944 12.4916C9.39142 12.4916 8.49725 11.5975 8.49725 10.4944C8.49725 9.39142 9.39142 8.49725 10.4944 8.49725C11.5975 8.49725 12.4916 9.39142 12.4916 10.4944C12.4916 11.5975 11.5975 12.4916 10.4944 12.4916ZM2.50567 8.49725C1.40265 8.49725 0.50848 7.60308 0.50848 6.50006C0.50848 5.39704 1.40265 4.50287 2.50567 4.50287C3.60869 4.50287 4.50287 5.39704 4.50287 6.50006C4.50287 7.60308 3.60869 8.49725 2.50567 8.49725ZM10.4944 4.50287C9.39142 4.50287 8.49725 3.60869 8.49725 2.50567C8.49725 1.40265 9.39142 0.50848 10.4944 0.50848C11.5975 0.50848 12.4916 1.40265 12.4916 2.50567C12.4916 3.60869 11.5975 4.50287 10.4944 4.50287Z" stroke="white" stroke-linecap="round" stroke-linejoin="round"/>
</svg>
