<svg width="17" height="14" viewBox="0 0 17 14" fill="none" xmlns="http://www.w3.org/2000/svg">
<path d="M0.758722 5.91957V10.0484C0.758722 11.0119 0.758722 11.4933 0.946222 11.8613C1.11115 12.185 1.37413 12.4485 1.69782 12.6134C2.06545 12.8007 2.54695 12.8007 3.50852 12.8007H13.4915C14.453 12.8007 14.9339 12.8007 15.3015 12.6134C15.6252 12.4485 15.889 12.185 16.054 11.8613C16.2413 11.4937 16.2413 11.0129 16.2413 10.0513V5.91957M0.758722 5.91957V4.19929M0.758722 5.91957H16.2413M0.758722 4.19929V3.51134C0.758722 2.5479 0.758722 2.06581 0.946222 1.69782C1.11115 1.37413 1.37413 1.11115 1.69782 0.946222C2.06581 0.758722 2.5479 0.758722 3.51134 0.758722H13.489C14.4524 0.758722 14.9335 0.758722 15.3015 0.946222C15.6252 1.11115 15.889 1.37413 16.054 1.69782C16.2413 2.06545 16.2413 2.54695 16.2413 3.50852V4.19929M0.758722 4.19929H16.2413M4.19929 9.36014H7.63986M16.2413 5.91957V4.19929" stroke="#3A544D" stroke-width="1.5" stroke-linecap="round" stroke-linejoin="round"/>
</svg>
