<svg width="18" height="20" viewBox="0 0 18 20" fill="none" xmlns="http://www.w3.org/2000/svg">
<path d="M12.0001 14.9995V15.9995C12.0001 17.6563 10.657 18.9994 9.00018 18.9994C7.34339 18.9994 6.00028 17.6563 6.00028 15.9995V14.9995M12.0001 14.9995H6.00028M12.0001 14.9995H15.5905C15.973 14.9995 16.1651 14.9995 16.32 14.9472C16.6159 14.8475 16.8474 14.6151 16.9472 14.3193C16.9996 14.1638 16.9996 13.971 16.9996 13.5855C16.9996 13.4168 16.9994 13.3324 16.9862 13.252C16.9613 13.1 16.9023 12.9559 16.8125 12.8308C16.765 12.7647 16.7047 12.7043 16.5857 12.5854L16.1962 12.1959C16.0706 12.0702 15.9999 11.8997 15.9999 11.722V7.99973C15.9999 4.13386 12.8661 0.999957 9.00018 0.999966C5.13433 0.999976 2.00042 4.13387 2.00042 7.99973V11.722C2.00042 11.8998 1.92967 12.0702 1.80399 12.1959L1.4145 12.5854C1.2952 12.7047 1.23549 12.7646 1.18795 12.8308C1.09811 12.9559 1.0386 13.1 1.01365 13.252C1.00045 13.3324 1.00045 13.4168 1.00045 13.5855C1.00045 13.971 1.00045 14.1638 1.0529 14.3193C1.1527 14.6151 1.38524 14.8475 1.6811 14.9472C1.83599 14.9995 2.02743 14.9995 2.40996 14.9995H6.00028" stroke="#3A544D" stroke-width="2" stroke-linecap="round" stroke-linejoin="round"/>
</svg>
