<svg width="17" height="17" viewBox="0 0 17 17" fill="none" xmlns="http://www.w3.org/2000/svg">
<path d="M0.88958 1.88145C0.750038 2.21833 0.750038 2.64541 0.750038 3.49956C0.750038 4.35371 0.750038 4.78126 0.88958 5.11814C1.07564 5.56732 1.43227 5.92386 1.88145 6.10992C2.21833 6.24946 12.6459 6.24946 13.5001 6.24946C14.3542 6.24946 14.7818 6.24946 15.1186 6.10992C15.5678 5.92386 15.9244 5.56709 16.1104 5.11791C16.25 4.78102 16.25 4.35395 16.25 3.4998C16.25 2.64565 16.25 2.21833 16.1104 1.88145C15.9244 1.43227 15.5678 1.07564 15.1186 0.88958C14.7818 0.750038 14.3542 0.750038 13.5001 0.750038C12.6459 0.750038 2.21833 0.750038 1.88145 0.88958C1.43227 1.07564 1.07564 1.43227 0.88958 1.88145Z" stroke="#3A544D" stroke-opacity="0.4" stroke-width="1.5" stroke-linecap="round" stroke-linejoin="round"/>
<path d="M0.88958 11.0474C0.750038 11.3843 0.750038 11.8114 0.750038 12.6655C0.750038 13.5197 0.750038 13.9472 0.88958 14.2841C1.07564 14.7333 1.43227 15.0899 1.88145 15.2759C2.21833 15.4154 12.6459 15.4154 13.5001 15.4154C14.3542 15.4154 14.7818 15.4154 15.1186 15.2759C15.5678 15.0899 15.9244 14.7331 16.1104 14.2839C16.25 13.947 16.25 13.5199 16.25 12.6658C16.25 11.8116 16.25 11.3843 16.1104 11.0474C15.9244 10.5983 15.5678 10.2416 15.1186 10.0556C14.7818 9.91603 14.3542 9.91603 13.5001 9.91603C12.6459 9.91603 2.21833 9.91603 1.88145 10.0556C1.43227 10.2416 1.07564 10.5983 0.88958 11.0474Z" stroke="#3A544D" stroke-opacity="0.4" stroke-width="1.5" stroke-linecap="round" stroke-linejoin="round"/>
</svg>
