<svg width="28" height="28" viewBox="0 0 28 28" fill="none" xmlns="http://www.w3.org/2000/svg">
<path d="M8.16675 23.3334H19.8334" stroke="#006C51" stroke-linecap="round" stroke-linejoin="round"/>
<path d="M11.6667 23.3333C18.0834 20.4166 12.6001 15.8666 15.1667 11.6666" stroke="#006C51" stroke-linecap="round" stroke-linejoin="round"/>
<path d="M11.0834 10.9667C12.3667 11.9 13.1834 13.5334 13.7667 15.2834C11.4334 15.75 9.68341 15.75 8.16675 14.9334C6.76675 14.2334 5.48341 12.7167 4.66675 10.0334C7.93341 9.45003 9.80008 10.0334 11.0834 10.9667Z" stroke="#006C51" stroke-linecap="round" stroke-linejoin="round"/>
<path d="M16.45 6.99996C15.5605 8.39011 15.1131 10.0171 15.1667 11.6666C17.3833 11.55 19.0167 10.9666 20.1833 10.0333C21.35 8.86663 22.05 7.34996 22.1667 4.66663C19.0167 4.78329 17.5 5.83329 16.45 6.99996Z" stroke="#006C51" stroke-linecap="round" stroke-linejoin="round"/>
</svg>
