<svg width="10" height="13" viewBox="0 0 10 13" fill="none" xmlns="http://www.w3.org/2000/svg">
<path d="M0.502497 4.95044C0.502497 8.06775 3.22958 10.6456 4.43666 11.634C4.60941 11.7754 4.69682 11.847 4.82571 11.8833C4.92606 11.9115 5.07377 11.9115 5.17413 11.8833C5.30325 11.8469 5.39005 11.7761 5.56346 11.6341C6.77053 10.6457 9.49747 8.06803 9.49747 4.95073C9.49747 3.77102 9.02366 2.63949 8.18021 1.80531C7.33676 0.971133 6.19288 0.502497 5.00006 0.502497C3.80725 0.502497 2.66324 0.971204 1.81979 1.80538C0.97634 2.63956 0.502497 3.77074 0.502497 4.95044Z" stroke="white" stroke-linecap="round" stroke-linejoin="round"/>
<path d="M3.71501 4.35751C3.71501 5.0672 4.29032 5.64251 5.00001 5.64251C5.7097 5.64251 6.28502 5.0672 6.28502 4.35751C6.28502 3.64782 5.7097 3.07251 5.00001 3.07251C4.29032 3.07251 3.71501 3.64782 3.71501 4.35751Z" stroke="white" stroke-linecap="round" stroke-linejoin="round"/>
</svg>
