<svg width="17" height="17" viewBox="0 0 17 17" fill="none" xmlns="http://www.w3.org/2000/svg">
<path d="M0.889573 1.88144C0.750032 2.21832 0.750032 2.64539 0.750032 3.49954C0.750032 4.35368 0.750032 4.78123 0.889573 5.11811C1.07563 5.56728 1.43226 5.92382 1.88144 6.10988C2.21832 6.24942 12.6458 6.24942 13.5 6.24942C14.3541 6.24942 14.7817 6.24942 15.1185 6.10988C15.5677 5.92382 15.9243 5.56705 16.1103 5.11787C16.2498 4.78099 16.2498 4.35391 16.2498 3.49977C16.2498 2.64563 16.2498 2.21832 16.1103 1.88144C15.9243 1.43226 15.5677 1.07563 15.1185 0.889573C14.7817 0.750032 14.3541 0.750032 13.5 0.750032C12.6458 0.750032 2.21832 0.750032 1.88144 0.889573C1.43226 1.07563 1.07563 1.43226 0.889573 1.88144Z" stroke="#138669" stroke-width="1.5" stroke-linecap="round" stroke-linejoin="round"/>
<path d="M0.889573 11.0474C0.750032 11.3842 0.750032 11.8113 0.750032 12.6655C0.750032 13.5196 0.750032 13.9471 0.889573 14.284C1.07563 14.7332 1.43226 15.0897 1.88144 15.2758C2.21832 15.4153 12.6458 15.4153 13.5 15.4153C14.3541 15.4153 14.7817 15.4153 15.1185 15.2758C15.5677 15.0897 15.9243 14.733 16.1103 14.2838C16.2498 13.9469 16.2498 13.5198 16.2498 12.6657C16.2498 11.8116 16.2498 11.3842 16.1103 11.0474C15.9243 10.5982 15.5677 10.2416 15.1185 10.0555C14.7817 9.91595 14.3541 9.91595 13.5 9.91595C12.6458 9.91595 2.21832 9.91595 1.88144 10.0555C1.43226 10.2416 1.07563 10.5982 0.889573 11.0474Z" stroke="#138669" stroke-width="1.5" stroke-linecap="round" stroke-linejoin="round"/>
</svg>
