<svg width="20" height="20" viewBox="0 0 20 20" fill="none" xmlns="http://www.w3.org/2000/svg">
<path d="M10.0001 13.5497V9.54962M11.2462 18.5409L12.4672 17.5004C12.7748 17.2383 13.1567 17.0798 13.5596 17.0477L15.1586 16.9202C16.0988 16.8452 16.8455 16.0989 16.9206 15.1588L17.0477 13.5594C17.0799 13.1566 17.2389 12.7741 17.501 12.4665L18.5411 11.2458C19.1528 10.528 19.1529 9.47209 18.5412 8.75426L17.5011 7.53343C17.239 7.22582 17.0802 6.84319 17.048 6.44031L16.9201 4.84125C16.8451 3.90111 16.0995 3.15435 15.1593 3.07933L13.5597 2.9517C13.1568 2.91955 12.7745 2.76148 12.4669 2.49934L11.2462 1.4588C10.5284 0.847071 9.4718 0.846946 8.75397 1.45868L7.53325 2.49924C7.22564 2.76139 6.84333 2.91974 6.44046 2.95189L4.84083 3.07933C3.90069 3.15435 3.15509 3.90093 3.08007 4.84107L2.95214 6.44021C2.91999 6.84308 2.76115 7.22539 2.49901 7.533L1.45895 8.7542C0.847223 9.47204 0.846936 10.5276 1.45867 11.2454L2.49966 12.4667C2.7618 12.7743 2.91911 13.1566 2.95126 13.5594L3.07919 15.1586C3.15421 16.0987 3.90196 16.8453 4.84211 16.9203L6.43997 17.0478C6.84284 17.0799 7.22533 17.2383 7.53294 17.5004L8.75407 18.5409C9.4719 19.1527 10.5284 19.1527 11.2462 18.5409ZM10.0499 6.54959V6.44959L9.95027 6.44998V6.54959H10.0499Z" stroke="#006C51" stroke-width="2" stroke-linecap="round" stroke-linejoin="round"/>
</svg>
