<svg width="18" height="18" viewBox="0 0 18 18" fill="none" xmlns="http://www.w3.org/2000/svg">
<g clip-path="url(#clip0_0_32)">
<path fill-rule="evenodd" clip-rule="evenodd" d="M0.75 1.5C0.75 1.08579 1.08579 0.75 1.5 0.75H7.5C7.91421 0.75 8.25 1.08579 8.25 1.5V7.5C8.25 7.91421 7.91421 8.25 7.5 8.25H1.5C1.08579 8.25 0.75 7.91421 0.75 7.5V1.5ZM2.25 2.25V6.75H6.75V2.25H2.25Z" fill="#3A544D"/>
<path fill-rule="evenodd" clip-rule="evenodd" d="M3.75 4.5C3.75 4.08579 4.08579 3.75 4.5 3.75H4.5075C4.92171 3.75 5.2575 4.08579 5.2575 4.5C5.2575 4.91421 4.92171 5.25 4.5075 5.25H4.5C4.08579 5.25 3.75 4.91421 3.75 4.5Z" fill="#3A544D"/>
<path fill-rule="evenodd" clip-rule="evenodd" d="M9.75 1.5C9.75 1.08579 10.0858 0.75 10.5 0.75H16.5C16.9142 0.75 17.25 1.08579 17.25 1.5V7.5C17.25 7.91421 16.9142 8.25 16.5 8.25H10.5C10.0858 8.25 9.75 7.91421 9.75 7.5V1.5ZM11.25 2.25V6.75H15.75V2.25H11.25Z" fill="#3A544D"/>
<path fill-rule="evenodd" clip-rule="evenodd" d="M12.75 4.5C12.75 4.08579 13.0858 3.75 13.5 3.75H13.5075C13.9217 3.75 14.2575 4.08579 14.2575 4.5C14.2575 4.91421 13.9217 5.25 13.5075 5.25H13.5C13.0858 5.25 12.75 4.91421 12.75 4.5Z" fill="#3A544D"/>
<path fill-rule="evenodd" clip-rule="evenodd" d="M0.75 10.5C0.75 10.0858 1.08579 9.75 1.5 9.75H7.5C7.91421 9.75 8.25 10.0858 8.25 10.5V16.5C8.25 16.9142 7.91421 17.25 7.5 17.25H1.5C1.08579 17.25 0.75 16.9142 0.75 16.5V10.5ZM2.25 11.25V15.75H6.75V11.25H2.25Z" fill="#3A544D"/>
<path fill-rule="evenodd" clip-rule="evenodd" d="M3.75 13.5C3.75 13.0858 4.08579 12.75 4.5 12.75H4.5075C4.92171 12.75 5.2575 13.0858 5.2575 13.5C5.2575 13.9142 4.92171 14.25 4.5075 14.25H4.5C4.08579 14.25 3.75 13.9142 3.75 13.5Z" fill="#3A544D"/>
<path fill-rule="evenodd" clip-rule="evenodd" d="M9.75 10.5C9.75 10.0858 10.0858 9.75 10.5 9.75H10.5075C10.9217 9.75 11.2575 10.0858 11.2575 10.5C11.2575 10.9142 10.9217 11.25 10.5075 11.25H10.5C10.0858 11.25 9.75 10.9142 9.75 10.5Z" fill="#3A544D"/>
<path fill-rule="evenodd" clip-rule="evenodd" d="M12.75 13.5C12.75 13.0858 13.0858 12.75 13.5 12.75H13.5075C13.9217 12.75 14.2575 13.0858 14.2575 13.5C14.2575 13.9142 13.9217 14.25 13.5075 14.25H13.5C13.0858 14.25 12.75 13.9142 12.75 13.5Z" fill="#3A544D"/>
<path fill-rule="evenodd" clip-rule="evenodd" d="M16.5 12.75C16.9142 12.75 17.25 13.0858 17.25 13.5V16.5C17.25 16.9142 16.9142 17.25 16.5 17.25H13.5C13.0858 17.25 12.75 16.9142 12.75 16.5C12.75 16.0858 13.0858 15.75 13.5 15.75H15.75V13.5C15.75 13.0858 16.0858 12.75 16.5 12.75Z" fill="#3A544D"/>
<path fill-rule="evenodd" clip-rule="evenodd" d="M10.5 12.75C10.9142 12.75 11.25 13.0858 11.25 13.5V16.5C11.25 16.9142 10.9142 17.25 10.5 17.25C10.0858 17.25 9.75 16.9142 9.75 16.5V13.5C9.75 13.0858 10.0858 12.75 10.5 12.75Z" fill="#3A544D"/>
<path fill-rule="evenodd" clip-rule="evenodd" d="M12.75 10.5C12.75 10.0858 13.0858 9.75 13.5 9.75H16.5C16.9142 9.75 17.25 10.0858 17.25 10.5C17.25 10.9142 16.9142 11.25 16.5 11.25H13.5C13.0858 11.25 12.75 10.9142 12.75 10.5Z" fill="#3A544D"/>
</g>
<defs>
<clipPath id="clip0_0_32">
<rect width="18" height="18" fill="white"/>
</clipPath>
</defs>
</svg>
