<svg width="14" height="14" viewBox="0 0 14 14" fill="none" xmlns="http://www.w3.org/2000/svg">
<path d="M13.5677 6.99991V11.1058C13.5677 12.4663 10.6268 13.5693 6.99911 13.5693C3.37139 13.5693 0.430543 12.4663 0.430543 11.1058V6.99991M13.5677 6.99991V2.89406M13.5677 6.99991C13.5677 8.36047 10.6268 9.46343 6.99911 9.46343C3.37139 9.46343 0.430543 8.36047 0.430543 6.99991M13.5677 2.89406C13.5677 1.5335 10.6268 0.430543 6.99911 0.430543C3.37139 0.430543 0.430543 1.5335 0.430543 2.89406M13.5677 2.89406C13.5677 4.25462 10.6268 5.35757 6.99911 5.35757C3.37139 5.35757 0.430543 4.25462 0.430543 2.89406M0.430543 6.99991V2.89406" stroke="#899894" stroke-width="0.8" stroke-linecap="round" stroke-linejoin="round"/>
</svg>
