<svg width="9" height="12" viewBox="0 0 9 12" fill="none" xmlns="http://www.w3.org/2000/svg">
<path d="M8.5905 5.66832V8.95533C8.5905 10.0445 6.75912 10.9275 4.5 10.9275C2.24088 10.9275 0.4095 10.0445 0.4095 8.95533V5.66832M8.5905 5.66832V2.38131M8.5905 5.66832C8.5905 6.75754 6.75912 7.64052 4.5 7.64052C2.24088 7.64052 0.4095 6.75754 0.4095 5.66832M8.5905 2.38131C8.5905 1.29209 6.75912 0.409102 4.5 0.409102C2.24088 0.409102 0.4095 1.29209 0.4095 2.38131M8.5905 2.38131C8.5905 3.47053 6.75912 4.35351 4.5 4.35351C2.24088 4.35351 0.4095 3.47053 0.4095 2.38131M0.4095 5.66832V2.38131" stroke="#E0E0E0" stroke-width="0.8" stroke-linecap="round" stroke-linejoin="round"/>
</svg>
