<svg width="11" height="12" viewBox="0 0 11 12" fill="none" xmlns="http://www.w3.org/2000/svg">
<path d="M6.60788 4.78424V9.0394M4.17636 4.78424V9.0394M1.74484 2.35272V9.52571C1.74484 10.2066 1.74484 10.5468 1.87735 10.8069C1.9939 11.0356 2.17976 11.222 2.40852 11.3385C2.66833 11.4709 3.00862 11.4709 3.68818 11.4709H7.09606C7.77562 11.4709 8.11542 11.4709 8.37523 11.3385C8.60399 11.222 8.79046 11.0356 8.90702 10.8069C9.0394 10.5471 9.0394 10.2071 9.0394 9.52759V2.35272M1.74484 2.35272H2.9606M1.74484 2.35272H0.529074M2.9606 2.35272H7.82364M2.9606 2.35272C2.9606 1.78624 2.9606 1.50315 3.05314 1.27972C3.17653 0.981828 3.41305 0.74501 3.71095 0.621618C3.93437 0.529074 4.21776 0.529074 4.78424 0.529074H6C6.56647 0.529074 6.84971 0.529074 7.07313 0.621618C7.37103 0.74501 7.60764 0.981828 7.73104 1.27972C7.82358 1.50314 7.82364 1.78624 7.82364 2.35272M7.82364 2.35272H9.0394M9.0394 2.35272H10.2552" stroke="white" stroke-linecap="round" stroke-linejoin="round"/>
</svg>
