<svg width="19" height="16" viewBox="0 0 19 16" fill="none" xmlns="http://www.w3.org/2000/svg">
<path d="M0.785287 15.0272H2.52823M2.52823 15.0272H7.75707M2.52823 15.0272V7.57799C2.52823 7.11233 2.52823 6.87938 2.58485 6.66269C2.63503 6.47067 2.71803 6.28895 2.8295 6.12474C2.95529 5.93944 3.13011 5.78578 3.48056 5.47914L7.66501 1.81774C8.31468 1.24928 8.63954 0.965032 9.00539 0.85684C9.328 0.761435 9.67187 0.761435 9.99448 0.85684C10.3606 0.965114 10.6859 1.24963 11.3366 1.81895L15.5197 5.47914C15.8701 5.78577 16.045 5.93944 16.1708 6.12474C16.2822 6.28895 16.3646 6.47067 16.4148 6.66269C16.4714 6.87938 16.4718 7.11233 16.4718 7.57799V15.0272M7.75707 15.0272H11.243M7.75707 15.0272V11.5413C7.75707 10.5787 8.53742 9.79838 9.50002 9.79838C10.4626 9.79838 11.243 10.5787 11.243 11.5413V15.0272M11.243 15.0272H16.4718M16.4718 15.0272H18.2148" stroke="#3A544D" stroke-width="1.5" stroke-linecap="round" stroke-linejoin="round"/>
</svg>
