<svg width="9" height="10" viewBox="0 0 9 10" fill="none" xmlns="http://www.w3.org/2000/svg">
<path d="M5.5 4V7.5M3.5 4V7.5M1.5 2V7.9C1.5 8.46005 1.5 8.73988 1.60899 8.9538C1.70487 9.14196 1.85774 9.29524 2.0459 9.39111C2.2596 9.5 2.5395 9.5 3.09845 9.5H5.90155C6.4605 9.5 6.73999 9.5 6.9537 9.39111C7.14186 9.29524 7.29524 9.14196 7.39111 8.9538C7.5 8.74009 7.5 8.4605 7.5 7.90155V2M1.5 2H2.5M1.5 2H0.5M2.5 2H6.5M2.5 2C2.5 1.53406 2.5 1.3012 2.57612 1.11743C2.67761 0.872404 2.87216 0.677614 3.11719 0.57612C3.30096 0.5 3.53406 0.5 4 0.5H5C5.46594 0.5 5.69891 0.5 5.88268 0.57612C6.12771 0.677614 6.32233 0.872404 6.42383 1.11743C6.49995 1.3012 6.5 1.53406 6.5 2M6.5 2H7.5M7.5 2H8.5" stroke="#899894" stroke-linecap="round" stroke-linejoin="round"/>
</svg>
